<svg width="96" height="96" viewBox="0 0 96 96" fill="none" xmlns="http://www.w3.org/2000/svg">
  <rect width="96" height="96" rx="24" fill="#FFF7E8"/>
  <path d="M20 43.5C22.7 25 33.5 14.5 48 14.5C62.5 14.5 73.3 25 76 43.5H20Z" fill="url(#cap)"/>
  <path d="M20 43.5C22.7 25 33.5 14.5 48 14.5C62.5 14.5 73.3 25 76 43.5H20Z" stroke="#5C2D17" stroke-width="3.2" stroke-linejoin="round"/>
  <path d="M34.5 43.5H61.5V70.5C61.5 78 55.8 83.5 48 83.5C40.2 83.5 34.5 78 34.5 70.5V43.5Z" fill="#F2D196"/>
  <path d="M34.5 43.5H61.5V70.5C61.5 78 55.8 83.5 48 83.5C40.2 83.5 34.5 78 34.5 70.5V43.5Z" stroke="#7B4B22" stroke-width="4" stroke-linejoin="round"/>
  <path d="M18.5 43.5H77.5" stroke="#7B4B22" stroke-width="5" stroke-linecap="round"/>
  <circle cx="33" cy="31" r="4.2" fill="#FFF1C7"/>
  <circle cx="48" cy="25.5" r="4.8" fill="#FFF1C7"/>
  <circle cx="62.5" cy="31.5" r="4" fill="#FFF1C7"/>
  <circle cx="40.2" cy="36.5" r="2.6" fill="#FFF1C7" opacity="0.86"/>
  <circle cx="56.6" cy="37" r="2.4" fill="#FFF1C7" opacity="0.86"/>
  <defs>
    <linearGradient id="cap" x1="24" y1="18" x2="74" y2="48">
      <stop stop-color="#B66D2F"/>
      <stop offset="0.72" stop-color="#7E421D"/>
      <stop offset="1" stop-color="#5C2D17"/>
    </linearGradient>
  </defs>
</svg>
