<svg width="96" height="96" viewBox="0 0 96 96" fill="none" xmlns="http://www.w3.org/2000/svg">
  <rect width="96" height="96" rx="26" fill="url(#bg)"/>
  <path d="M17.5 43C20.5 25.6 32.7 16 48.1 16C63.4 16 75.5 25.6 78.5 43H17.5Z" fill="#FFF1C7"/>
  <path d="M38.5 43H57.5V69.4C57.5 75.4 53.2 80 48 80C42.8 80 38.5 75.4 38.5 69.4V43Z" fill="#F8E7BE"/>
  <path d="M30.5 50H65.5" stroke="#7B4B22" stroke-width="4" stroke-linecap="round" opacity="0.32"/>
  <circle cx="33" cy="30" r="4" fill="#8B4B22"/>
  <circle cx="48" cy="25.5" r="4.5" fill="#8B4B22"/>
  <circle cx="62.5" cy="31" r="3.8" fill="#8B4B22"/>
  <circle cx="70" cy="68" r="14" fill="#6D198E"/>
  <path d="M62.7 64.2H77.3M66.7 64.3V76.8M73.3 64.3V76.8" stroke="#FFE58D" stroke-width="2.5" stroke-linecap="round"/>
  <circle cx="66.7" cy="59.8" r="1.8" fill="#FFE58D"/>
  <circle cx="73.3" cy="59.8" r="1.8" fill="#FFE58D"/>
  <defs>
    <linearGradient id="bg" x1="10" y1="8" x2="88" y2="92">
      <stop stop-color="#F6BD54"/>
      <stop offset="0.58" stop-color="#9A5529"/>
      <stop offset="1" stop-color="#385D34"/>
    </linearGradient>
  </defs>
</svg>
