<svg xmlns="http://www.w3.org/2000/svg" viewBox="0 0 1200 800" role="img" aria-label="Fresh oyster mushrooms on a wooden table">
  <defs>
    <linearGradient id="bg" x1="0" x2="1" y1="0" y2="1">
      <stop offset="0" stop-color="#fbfff0"/>
      <stop offset=".58" stop-color="#dbe8c4"/>
      <stop offset="1" stop-color="#6d8840"/>
    </linearGradient>
    <radialGradient id="petal" cx="55%" cy="35%" r="72%">
      <stop offset="0" stop-color="#fff8e5"/>
      <stop offset=".6" stop-color="#d9c4a2"/>
      <stop offset="1" stop-color="#8c7352"/>
    </radialGradient>
  </defs>
  <rect width="1200" height="800" fill="url(#bg)"/>
  <path d="M0 600c310-70 650-60 1200 22v178H0z" fill="#6c4428" opacity=".34"/>
  <g transform="translate(550 420)">
    <ellipse cx="-180" cy="10" rx="180" ry="88" fill="url(#petal)" transform="rotate(-24)"/>
    <ellipse cx="-50" cy="-70" rx="210" ry="100" fill="url(#petal)" transform="rotate(-7)"/>
    <ellipse cx="120" cy="-38" rx="230" ry="106" fill="url(#petal)" transform="rotate(13)"/>
    <ellipse cx="220" cy="70" rx="170" ry="82" fill="url(#petal)" transform="rotate(31)"/>
    <path d="M-80 28c34 76 76 150 128 222" fill="none" stroke="#f8ead1" stroke-width="34" stroke-linecap="round"/>
    <path d="M40 20c22 78 38 148 38 230" fill="none" stroke="#f8ead1" stroke-width="36" stroke-linecap="round"/>
    <path d="M150 50c-4 76-22 132-58 198" fill="none" stroke="#f8ead1" stroke-width="34" stroke-linecap="round"/>
  </g>
  <circle cx="180" cy="150" r="90" fill="#ffffff" opacity=".22"/>
</svg>
