<svg xmlns="http://www.w3.org/2000/svg" viewBox="0 0 1200 800" role="img" aria-label="Enoki mushrooms with fresh kitchen greens">
  <defs>
    <linearGradient id="bg" x1="0" x2="1" y1="0" y2="1">
      <stop offset="0" stop-color="#fffdf4"/>
      <stop offset=".62" stop-color="#eef3dc"/>
      <stop offset="1" stop-color="#46682e"/>
    </linearGradient>
  </defs>
  <rect width="1200" height="800" fill="url(#bg)"/>
  <path d="M180 630c190-120 520-156 840-74" fill="none" stroke="#7f9e55" stroke-width="42" stroke-linecap="round" opacity=".38"/>
  <g stroke="#fff6dd" stroke-width="22" stroke-linecap="round">
    <path d="M330 610C370 410 370 290 360 205"/>
    <path d="M405 625C440 420 455 300 440 190"/>
    <path d="M482 632C520 410 535 284 520 175"/>
    <path d="M560 630C602 410 615 302 600 190"/>
    <path d="M638 620C670 425 690 300 678 205"/>
    <path d="M716 600C750 430 770 330 760 235"/>
    <path d="M790 575C820 430 840 350 835 265"/>
  </g>
  <g fill="#fff9e9" stroke="#e9d2a9" stroke-width="6">
    <circle cx="360" cy="184" r="42"/>
    <circle cx="440" cy="170" r="46"/>
    <circle cx="520" cy="155" r="48"/>
    <circle cx="600" cy="170" r="44"/>
    <circle cx="678" cy="185" r="40"/>
    <circle cx="760" cy="218" r="40"/>
    <circle cx="835" cy="250" r="36"/>
  </g>
  <circle cx="980" cy="150" r="170" fill="#ffffff" opacity=".18"/>
</svg>
