<svg xmlns="http://www.w3.org/2000/svg" viewBox="0 0 1200 800" role="img" aria-label="Termite mushrooms on natural leaves">
  <defs>
    <linearGradient id="bg" x1="0" x2="1" y1="0" y2="1">
      <stop offset="0" stop-color="#fff9e8"/>
      <stop offset=".55" stop-color="#d7c28b"/>
      <stop offset="1" stop-color="#355326"/>
    </linearGradient>
  </defs>
  <rect width="1200" height="800" fill="url(#bg)"/>
  <path d="M170 610c210-180 560-240 870-110" fill="none" stroke="#668b3e" stroke-width="70" stroke-linecap="round" opacity=".42"/>
  <g fill="#f5e7cc" stroke="#c8a978" stroke-width="6">
    <path d="M360 462c-50-84 20-160 116-130 78 24 92 102 30 150-48 38-112 34-146-20z"/>
    <path d="M525 382c-34-105 72-178 166-108 86 64 52 168-50 192-52 12-94-16-116-84z"/>
    <path d="M740 438c-36-92 56-156 142-96 76 54 48 148-44 174-46 14-78-10-98-78z"/>
  </g>
  <g stroke="#fff8e9" stroke-width="26" stroke-linecap="round">
    <path d="M425 494v144"/>
    <path d="M600 472v162"/>
    <path d="M805 520v116"/>
  </g>
</svg>
